<?xml version="1.0" encoding="UTF-8" standalone="no"?>
<svg xmlns="http://www.w3.org/2000/svg" xmlns:xlink="http://www.w3.org/1999/xlink" width="900" height="600" viewBox="0 0 900 600">
  <style>
    .box {
      fill: #f0f6ff;
      stroke: #3273dc;
      stroke-width: 2;
      rx: 8;
      ry: 8;
    }
    .box-title {
      fill: #3273dc;
      font-family: Arial, sans-serif;
      font-size: 14px;
      font-weight: bold;
    }
    .box-content {
      fill: #4a4a4a;
      font-family: Arial, sans-serif;
      font-size: 12px;
    }
    .arrow {
      stroke: #3273dc;
      stroke-width: 2;
      marker-end: url(#arrow);
      fill: none;
    }
    .component {
      fill: #ffffff;
      stroke: #209cee;
      stroke-width: 1.5;
      rx: 6;
      ry: 6;
    }
    .component-title {
      fill: #209cee;
      font-family: Arial, sans-serif;
      font-size: 12px;
      font-weight: bold;
    }
    .section-title {
      fill: #363636;
      font-family: Arial, sans-serif;
      font-size: 16px;
      font-weight: bold;
    }
    .note {
      fill: #fffaeb;
      stroke: #ffdd57;
      stroke-width: 1;
      rx: 4;
      ry: 4;
    }
    .note-text {
      fill: #946c00;
      font-family: Arial, sans-serif;
      font-size: 10px;
    }
    .data-flow {
      stroke: #00d1b2;
      stroke-width: 2;
      marker-end: url(#data-arrow);
      stroke-dasharray: 5,3;
      fill: none;
    }
    .k8s-border {
      fill: rgba(0, 209, 178, 0.1);
      stroke: #00d1b2;
      stroke-width: 1.5;
      stroke-dasharray: 5,3;
      rx: 10;
      ry: 10;
    }
    .cloud-border {
      fill: rgba(121, 87, 213, 0.1);
      stroke: #7957d5;
      stroke-width: 1.5;
      rx: 15;
      ry: 15;
    }
    .infra-label {
      fill: #7957d5;
      font-family: Arial, sans-serif;
      font-size: 14px;
      font-style: italic;
    }
    .main-title {
      fill: #363636;
      font-family: Arial, sans-serif;
      font-size: 24px;
      font-weight: bold;
    }
  </style>
  
  <!-- Markers for arrows -->
  <defs>
    <marker id="arrow" markerWidth="10" markerHeight="10" refX="9" refY="3" orient="auto" markerUnits="strokeWidth">
      <path d="M0,0 L0,6 L9,3 z" fill="#3273dc" />
    </marker>
    <marker id="data-arrow" markerWidth="10" markerHeight="10" refX="9" refY="3" orient="auto" markerUnits="strokeWidth">
      <path d="M0,0 L0,6 L9,3 z" fill="#00d1b2" />
    </marker>
  </defs>

  <!-- Main title -->
  <text x="450" y="40" text-anchor="middle" class="main-title">MLOps Production System Architecture</text>

  <!-- Kubernetes Cluster Border -->
  <rect x="100" y="70" width="700" height="480" class="k8s-border" />
  <text x="115" y="90" class="infra-label">Kubernetes Cluster</text>
  
  <!-- Data Pipeline Section -->
  <rect x="130" y="120" width="200" height="190" class="box" />
  <text x="230" y="140" text-anchor="middle" class="box-title">Data Pipeline</text>
  
  <rect x="150" y="155" width="160" height="30" class="component" />
  <text x="230" y="175" text-anchor="middle" class="component-title">Data Ingestion</text>
  
  <rect x="150" y="195" width="160" height="30" class="component" />
  <text x="230" y="215" text-anchor="middle" class="component-title">Data Validation</text>
  
  <rect x="150" y="235" width="160" height="30" class="component" />
  <text x="230" y="255" text-anchor="middle" class="component-title">Feature Engineering</text>
  
  <rect x="150" y="275" width="160" height="25" class="note" />
  <text x="230" y="292" text-anchor="middle" class="note-text">Feature Store Integration</text>
  
  <!-- Model Training Section -->
  <rect x="130" y="330" width="200" height="190" class="box" />
  <text x="230" y="350" text-anchor="middle" class="box-title">Model Training</text>
  
  <rect x="150" y="365" width="160" height="30" class="component" />
  <text x="230" y="385" text-anchor="middle" class="component-title">Experiment Tracking (MLflow)</text>
  
  <rect x="150" y="405" width="160" height="30" class="component" />
  <text x="230" y="425" text-anchor="middle" class="component-title">Distributed Training</text>
  
  <rect x="150" y="445" width="160" height="30" class="component" />
  <text x="230" y="465" text-anchor="middle" class="component-title">Model Evaluation</text>
  
  <rect x="150" y="485" width="160" height="25" class="note" />
  <text x="230" y="502" text-anchor="middle" class="note-text">A/B Testing Framework</text>
  
  <!-- Model Registry Section -->
  <rect x="350" y="120" width="200" height="140" class="box" />
  <text x="450" y="140" text-anchor="middle" class="box-title">Model Registry</text>
  
  <rect x="370" y="155" width="160" height="30" class="component" />
  <text x="450" y="175" text-anchor="middle" class="component-title">Model Versioning</text>
  
  <rect x="370" y="195" width="160" height="30" class="component" />
  <text x="450" y="215" text-anchor="middle" class="component-title">Metadata Storage</text>
  
  <rect x="370" y="235" width="160" height="15" class="note" />
  <text x="450" y="247" text-anchor="middle" class="note-text" style="font-size:9px;">Integrated with CI/CD Pipeline</text>
  
  <!-- API Layer Section -->
  <rect x="570" y="120" width="200" height="190" class="box" />
  <text x="670" y="140" text-anchor="middle" class="box-title">API Layer</text>
  
  <rect x="590" y="155" width="160" height="30" class="component" />
  <text x="670" y="175" text-anchor="middle" class="component-title">FastAPI Application</text>
  
  <rect x="590" y="195" width="160" height="30" class="component" />
  <text x="670" y="215" text-anchor="middle" class="component-title">Prediction Endpoints</text>
  
  <rect x="590" y="235" width="160" height="30" class="component" />
  <text x="670" y="255" text-anchor="middle" class="component-title">Health & Metadata APIs</text>
  
  <rect x="590" y="275" width="160" height="25" class="note" />
  <text x="670" y="292" text-anchor="middle" class="note-text">Horizontal Pod Autoscaling</text>
  
  <!-- Monitoring Section -->
  <rect x="350" y="280" width="420" height="240" class="box" />
  <text x="560" y="300" text-anchor="middle" class="box-title">Monitoring</text>
  
  <rect x="370" y="315" width="180" height="30" class="component" />
  <text x="460" y="335" text-anchor="middle" class="component-title">Prometheus Metrics Collection</text>
  
  <rect x="370" y="355" width="180" height="30" class="component" />
  <text x="460" y="375" text-anchor="middle" class="component-title">Grafana Dashboards</text>
  
  <rect x="370" y="395" width="180" height="30" class="component" />
  <text x="460" y="415" text-anchor="middle" class="component-title">Feature-level Drift Detection</text>
  
  <rect x="370" y="435" width="180" height="30" class="component" />
  <text x="460" y="455" text-anchor="middle" class="component-title">Automated Retraining Triggers</text>
  
  <rect x="370" y="475" width="180" height="25" class="note" />
  <text x="460" y="492" text-anchor="middle" class="note-text">Alert Manager Integration</text>
  
  <rect x="570" y="315" width="180" height="30" class="component" />
  <text x="660" y="335" text-anchor="middle" class="component-title">Model Performance Tracking</text>
  
  <rect x="570" y="355" width="180" height="30" class="component" />
  <text x="660" y="375" text-anchor="middle" class="component-title">Data Quality Monitoring</text>
  
  <rect x="570" y="395" width="180" height="30" class="component" />
  <text x="660" y="415" text-anchor="middle" class="component-title">A/B Testing Analytics</text>
  
  <rect x="570" y="435" width="180" height="30" class="component" />
  <text x="660" y="455" text-anchor="middle" class="component-title">Log Aggregation</text>
  
  <rect x="570" y="475" width="180" height="25" class="note" />
  <text x="660" y="492" text-anchor="middle" class="note-text">Distributed Tracing</text>
  
  <!-- CI/CD Box (outside the main system) -->
  <rect x="130" y="570" width="640" height="20" class="box" style="fill: rgba(50, 115, 220, 0.1);" />
  <text x="450" y="585" text-anchor="middle" class="box-title" style="font-size: 12px;">CI/CD Pipeline: GitHub Actions for Testing, Building, Validation, and Deployment</text>
  
  <!-- Flow Arrows -->
  <!-- Data Pipeline to Model Training -->
  <path d="M230,310 L230,330" class="arrow" />
  
  <!-- Data Pipeline to Model Registry -->
  <path d="M330,170 L350,170" class="arrow" />
  
  <!-- Model Training to Model Registry -->
  <path d="M330,380 Q340,240 350,240" class="arrow" />
  
  <!-- Model Registry to API Layer -->
  <path d="M550,170 L590,170" class="arrow" />
  
  <!-- API Layer to Monitoring -->
  <path d="M670,310 L670,315" class="arrow" />
  
  <!-- Model Training to Monitoring -->
  <path d="M330,430 L350,430" class="arrow" />
  
  <!-- Data Flow Arrows -->
  <path d="M230,520 C230,540 450,540 670,520" class="data-flow" />
  <path d="M450,260 C450,270 560,400 560,520" class="data-flow" />
</svg>
